<svg xmlns="http://www.w3.org/2000/svg" viewBox="0 0 1400 420"><rect width="1400" height="420" rx="26" fill="#0b0910" stroke="#34283e"/><g font-family="Arial" text-anchor="middle"><g fill="#15111a" stroke="#4b3858"><rect x="45" y="145" width="190" height="110" rx="18"/><rect x="300" y="145" width="190" height="110" rx="18"/><rect x="555" y="145" width="190" height="110" rx="18"/><rect x="810" y="145" width="190" height="110" rx="18"/><rect x="1065" y="145" width="290" height="110" rx="18"/></g><g fill="#f4f0f7" font-size="23"><text x="140" y="195">REACT</text><text x="395" y="195">REST API</text><text x="650" y="195">FLASK</text><text x="905" y="195">SQLALCHEMY</text><text x="1210" y="195">POSTGRESQL / SQL</text></g><g fill="#8e8595" font-size="14"><text x="140" y="222">Client / UI</text><text x="395" y="222">HTTP / JSON</text><text x="650" y="222">Application logic</text><text x="905" y="222">ORM / relationships</text><text x="1210" y="222">Persistence</text></g><g stroke="#a864ff" stroke-width="4" fill="none"><path d="M235 200h65"/><path d="M490 200h65"/><path d="M745 200h65"/><path d="M1000 200h65"/></g><g fill="#d19aff"><path d="M285 190l15 10-15 10z"/><path d="M540 190l15 10-15 10z"/><path d="M795 190l15 10-15 10z"/><path d="M1050 190l15 10-15 10z"/></g></g></svg>